<svg width="17" height="23" viewBox="0 0 17 23" fill="none" xmlns="http://www.w3.org/2000/svg">
<path d="M4.53333 0C5.73565 0 6.88872 0.477617 7.73888 1.32778C8.58905 2.17795 9.06667 3.33102 9.06667 4.53333H0C0 3.33102 0.477617 2.17795 1.32778 1.32778C2.17795 0.477617 3.33102 0 4.53333 0ZM7.752 7.72933L6.8 17H5.66667V18.1333C5.66667 18.7345 5.90548 19.311 6.33056 19.7361C6.75564 20.1612 7.33218 20.4 7.93333 20.4C8.53449 20.4 9.11103 20.1612 9.53611 19.7361C9.96119 19.311 10.2 18.7345 10.2 18.1333V12.4667C10.2 11.2644 10.6776 10.1113 11.5278 9.26112C12.3779 8.41095 13.531 7.93333 14.7333 7.93333H17L15.8667 9.06667L17 10.2H14.7333C14.1322 10.2 13.5556 10.4388 13.1306 10.8639C12.7055 11.289 12.4667 11.8655 12.4667 12.4667V18.1333C12.4667 19.3356 11.989 20.4887 11.1389 21.3389C10.2887 22.189 9.13565 22.6667 7.93333 22.6667C6.73102 22.6667 5.57795 22.189 4.72778 21.3389C3.87762 20.4887 3.4 19.3356 3.4 18.1333V17H2.26667L1.31467 7.72933C0.759333 7.16267 0.351333 6.46 0.147333 5.66667H8.91933C8.71533 6.46 8.30733 7.16267 7.752 7.72933ZM4.53333 9.06667C4.23275 9.06667 3.94449 9.18607 3.73195 9.39861C3.5194 9.61115 3.4 9.89942 3.4 10.2C3.4 10.5006 3.5194 10.7888 3.73195 11.0014C3.94449 11.2139 4.23275 11.3333 4.53333 11.3333C4.83391 11.3333 5.12218 11.2139 5.33472 11.0014C5.54726 10.7888 5.66667 10.5006 5.66667 10.2C5.66667 9.89942 5.54726 9.61115 5.33472 9.39861C5.12218 9.18607 4.83391 9.06667 4.53333 9.06667Z" fill="#FCC54B"/>
</svg>
